<?xml version="1.0" encoding="UTF-8"?>
<svg version="1.1" viewBox="0 0 541.33 226.11" xmlns="http://www.w3.org/2000/svg">
<g transform="translate(-129.33 -393.59)">
<path d="m271.09 441.05v36.897c0 1.8366-1.5798 4.8649-3.4164 6.6961l-37.58 37.58c-0.91833 0.91833-1.8585 1.3666-2.4598 1.3666-0.60129 0-0.9566-0.44824-0.9566-1.3666v4.0997c0 1.8366 1.5798 3.4164 3.4164 3.4164h81.857c1.8366 0 3.4164-1.5798 3.4164-3.4164v-81.993c0-1.8367-1.5797-3.2797-3.4164-3.2797h-40.86zm-52.066 85.273c0 1.8366-1.5852 3.4164-3.4164 3.4164h-40.86v44.55c0 0.91832 0.36077 1.3666 0.95659 1.3666 0.59583 0 1.4048-0.44824 2.3232-1.3666l37.58-37.58c1.8312-1.8366 3.4164-4.8595 3.4164-6.6961v-3.6897z" fill="#7d8990"/>
<path d="m270.13 394.59c-0.60404 0-1.5415 0.44823-2.4598 1.3666l-37.58 37.717c-1.8312 1.8312-3.4164 4.7228-3.4164 6.5595v4.0997 77.894c0 1.8367 1.5852 1.8367 3.4164 0l37.58-37.58c1.8366-1.8366 3.4164-4.8595 3.4164-6.6961v-36.897-45.096c0-0.91833-0.35247-1.3666-0.9566-1.3666zm-136.38 46.463c-1.8366 0-3.4164 1.4431-3.4164 3.2797v81.993c0 1.8366 1.5797 3.4164 3.4164 3.4164h81.857c1.8366 0 3.4164-1.5798 3.4164-3.4164v-81.993c0-1.8367-1.5797-3.2797-3.4164-3.2797h-81.857z" fill="#e2001a"/>
<path d="m230.09 441.05c-1.8366 0-3.4164 1.5797-3.4164 3.4164v77.757c0 0.91833 0.35553 1.3666 0.9566 1.3666 0.60128 0 1.5415-0.44824 2.4598-1.3666l37.58-37.58c1.8366-1.8366 3.4164-4.8649 3.4164-6.6961v-36.897h-40.997zm-12.026 5.6029c-0.60675 0-1.5415 0.4537-2.4598 1.3666l-37.58 37.717c-1.8312 1.8694-3.2797 4.7283-3.2797 6.5595v37.444h40.86c1.8366 0 3.4164-1.5798 3.4164-3.4164v-78.304c0-0.91285-0.35553-1.3666-0.95659-1.3666z" fill="#8e1016"/>
<path d="m523.08 441.19c-0.62862 0-1.2026 0.14737-1.6399 0.54662-0.44824 0.4045-0.68327 0.88007-0.68327 1.5032v84.18c0 0.61768 0.23483 1.1916 0.68327 1.6399 0.4373 0.42637 1.0112 0.68329 1.6399 0.68329h20.225c4.1489 0 8.172-0.62862 11.889-1.7765 3.717-1.1643 6.9148-2.7659 9.7026-4.9196 2.7932-2.181 4.9688-4.8704 6.5595-8.0627 1.5907-3.1868 2.4598-6.8164 2.4598-10.796 0-2.7495-0.47556-5.3569-1.5032-7.7894-1.0167-2.4379-2.3778-4.5698-4.0997-6.4228-1.7328-1.864-3.7553-3.3125-6.0128-4.5096-2.2521-1.1971-4.6408-2.017-7.1061-2.4598 1.7711-0.53023 3.553-1.3994 5.4662-2.5965 1.9077-1.1916 3.7334-2.6456 5.3296-4.373 1.5961-1.7273 2.9026-3.7116 3.963-5.8762 1.0659-2.1701 1.6399-4.4495 1.6399-6.8328 0-3.81-0.71607-7.0624-2.1865-9.8392-1.4704-2.7932-3.4273-5.1547-5.8762-6.9694-2.4379-1.8093-5.2421-3.2141-8.4727-4.0997-3.236-0.88006-6.6469-1.2299-10.113-1.2299h-21.865zm61.358 0c-0.61768 0-1.0987 0.15305-1.5032 0.54662-0.38832 0.39926-0.4537 0.88553-0.27331 1.5032l16.945 84.18c0.18016 0.60675 0.60675 1.1916 1.0932 1.6399 0.48649 0.43162 1.0276 0.68329 1.6399 0.68329h6.6961c0.62316 0 1.1534-0.25145 1.6399-0.68329 0.47556-0.44823 0.77621-1.0331 0.95659-1.6399l14.486-74.204 14.622 74.204c0.17492 0.60675 0.4701 1.1916 0.95659 1.6399 0.4865 0.43162 1.0276 0.68329 1.6399 0.68329h6.6961c0.62861 0 1.1916-0.25145 1.6399-0.68329 0.44822-0.44823 0.7762-1.0331 0.95658-1.6399l16.945-84.18c0.18585-0.61769 0.0765-1.1042-0.27331-1.5032-0.36646-0.39357-0.75434-0.54662-1.3666-0.54662h-5.3296c-1.3283 0-2.2466 0.63409-2.5964 2.0498l-13.119 74.341-14.622-74.341c-0.35554-1.4158-1.1151-2.0498-2.4598-2.0498h-6.6961c-1.4103 0-2.2521 0.63409-2.5965 2.0498l-14.486 74.341-13.256-74.341c-0.36077-1.4158-1.3228-2.0498-2.7331-2.0498h-5.6029zm-53.979 7.7894h14.486c4.9743 0 9.0466 1.3119 12.162 3.963 3.0994 2.6511 4.6463 6.2807 4.6463 10.796 0 2.3013-0.5357 4.3457-1.5032 6.2862-0.98392 1.946-2.2248 3.6514-3.8264 5.0563-1.5907 1.4212-3.4328 2.4817-5.4662 3.2797-2.0444 0.80353-4.2145 1.2299-6.4228 1.2299h-14.076v-30.611zm0 38.264h14.486c5.592 0 10.151 1.5415 13.666 4.5096 3.4929 2.9627 5.1929 6.8874 5.1929 12.026 0 2.662-0.38265 5.1601-1.3666 7.3794-0.97845 2.2084-2.3669 4.1489-4.0997 5.7395-1.7273 1.5962-3.7061 2.8042-6.0128 3.6897-2.3068 0.89647-4.8103 1.3666-7.3794 1.3666h-14.486v-34.711zm-117.52 62.725v20.225c0 0.54115 0.0306 1.1424 0.13643 1.6399 0.0984 0.49743 0.28994 0.85273 0.54662 1.2299 0.2567 0.36602 0.66689 0.73794 1.0932 0.95659 0.42637 0.2239 0.96752 0.27331 1.6399 0.27331 0.3389 0 0.68875-0.0218 1.0932-0.13643 0.4045-0.1093 0.66141-0.30087 0.81994-0.40976l-0.68329-1.9132-0.54662 0.40975-0.54663 0.13643c-0.42636 0-0.78166-0.26237-0.95658-0.68327-0.18017-0.43162-0.27332-0.9402-0.27332-1.6399v-20.088h-2.3231zm87.87 0v23.915h2.3231v-12.162l0.40975-0.81993 0.81994-1.0932c0.36645-0.34459 0.88553-0.70515 1.3666-0.95659 0.48102-0.26238 0.96752-0.40975 1.5032-0.40975 0.54115 0 0.95113 0.16399 1.3666 0.40975 0.41544 0.24575 0.8254 0.56302 1.0932 0.95659 0.27332 0.38832 0.39925 0.88553 0.54662 1.3666 0.14738 0.4865 0.27332 0.91287 0.27332 1.3666v11.342h2.3232v-11.616c0-0.69421-0.0494-1.3666-0.27332-2.0498-0.2239-0.68874-0.65595-1.3666-1.0932-1.9132-0.43161-0.53569-0.96752-0.90739-1.6399-1.2299-0.67234-0.32797-1.4267-0.54662-2.3231-0.54662-0.58488 0-1.137 0.17492-1.6399 0.40975-0.50289 0.24051-0.97845 0.50289-1.3666 0.81993-0.39358 0.31136-0.72155 0.65595-0.9566 0.95659l-0.40975 0.68328v-9.4292h-2.3231zm46.736 0v23.915h2.3232v-12.162l0.40975-0.81993 0.81993-1.0932c0.3717-0.34459 0.74341-0.70515 1.2299-0.95659 0.48104-0.26238 1.1042-0.40975 1.6399-0.40975 0.54116 0 0.94566 0.16399 1.3666 0.40975 0.41543 0.24575 0.8254 0.56302 1.0932 0.95659 0.26762 0.38832 0.39925 0.88553 0.54662 1.3666 0.14211 0.4865 0.27331 0.91287 0.27331 1.3666v11.342h2.3231v-11.616c0-0.69421-0.18016-1.3666-0.40975-2.0498-0.21865-0.68874-0.51382-1.3666-0.95658-1.9132-0.4373-0.53569-0.96752-0.90739-1.6399-1.2299-0.67235-0.32797-1.4158-0.54662-2.3231-0.54662-0.57943 0-1.137 0.17492-1.6399 0.40975-0.5029 0.24051-0.97846 0.50289-1.3666 0.81993-0.39356 0.31136-0.72153 0.65595-0.95658 0.95659l-0.40975 0.68328v-9.4292h-2.3232zm35.257 0v20.225c0 0.54115 0.0262 1.1424 0.13644 1.6399 0.0931 0.49743 0.28424 0.85273 0.54662 1.2299 0.2567 0.36602 0.53022 0.73794 0.95659 0.95659 0.42637 0.2239 0.96753 0.27331 1.6399 0.27331 0.33367 0 0.81993-0.0218 1.2299-0.13643 0.39926-0.1093 0.66688-0.30087 0.81994-0.40976l-0.68306-1.9132-0.54663 0.40975-0.68327 0.13643c-0.42068 0-0.64501-0.26237-0.81993-0.68327-0.18585-0.43162-0.27332-0.9402-0.27332-1.6399v-20.088h-2.3232zm-223.16 1.5032v22.412h5.3296c1.3939 0 2.6347-0.34459 3.8264-0.95659 1.1916-0.60129 2.2794-1.4103 3.1431-2.4598 0.86365-1.055 1.5524-2.2576 2.0498-3.6897 0.49196-1.4267 0.68328-3.0064 0.68328-4.6463 0-1.6836-0.30611-3.1814-0.81994-4.5096-0.51929-1.3283-1.1315-2.356-2.0498-3.2797-0.91832-0.91833-2.0334-1.6945-3.2797-2.1865-1.2463-0.49195-2.6621-0.68327-4.0997-0.68327h-4.783zm88.826 0v22.412h2.4598v-10.659h9.1559v10.659h2.4598v-22.412h-2.4598v9.7026h-9.1559v-9.7026h-2.4598zm-86.366 1.9132h2.7331c0.96752 0 1.8421 0.27857 2.7331 0.68329 0.88553 0.4045 1.6508 0.88006 2.3232 1.6399 0.67235 0.74887 1.2354 1.6508 1.6399 2.7331s0.68327 2.3177 0.68327 3.6897c0 1.372-0.17492 2.6456-0.54662 3.8264-0.36645 1.1807-0.98938 2.2685-1.6399 3.1431-0.65048 0.88007-1.4322 1.5415-2.3232 2.0498-0.88552 0.5029-1.7218 0.81993-2.7331 0.81993h-2.8698v-18.585zm39.357 3.1431c-0.59035 0-1.2026 0.14212-1.7765 0.27331-0.57395 0.13644-1.1643 0.23483-1.6399 0.40975-0.4701 0.18585-0.75435 0.38832-1.0932 0.54662l-0.68328 0.27332 0.68328 1.9132 0.68328-0.40975c0.32272-0.16967 0.68874-0.2405 1.0932-0.40975 0.4045-0.16398 0.78168-0.40974 1.2299-0.54661 0.4537-0.13119 0.8746-0.13645 1.2299-0.13645 1.2135 0 2.1373 0.33891 2.7331 1.0932 0.59035 0.74887 0.81994 1.6344 0.81994 2.7331v1.0932l-3.2797 0.81993c-0.65595 0.12551-1.2955 0.36603-2.0498 0.68329-0.74887 0.31136-1.5415 0.63408-2.1865 1.0932-0.63955 0.44276-1.0932 1.0331-1.5032 1.6399-0.42068 0.60675-0.68327 1.1971-0.68327 1.9132 0 1.5087 0.55208 2.7167 1.5032 3.553 0.95659 0.83087 2.2084 1.2299 3.6897 1.2299 0.62861 0 1.0878-0.0394 1.6399-0.27331 0.55208-0.23527 1.0768-0.64502 1.5032-0.95659 0.42636-0.31705 0.83634-0.50836 1.0932-0.81993l0.40975-0.68329v2.3232h2.1865v-11.616c0-1.8366-0.48103-3.2852-1.5032-4.2363-1.0222-0.95658-2.3942-1.5032-4.0997-1.5032zm25.965 0c-1.0331 0-1.9569 0.39881-2.7331 0.95659-0.7762 0.56849-1.383 1.208-1.9132 2.0498-0.52476 0.8418-0.96206 1.7492-1.2299 2.7331-0.2733 0.98939-0.40974 1.9077-0.40974 2.7331 0 1.055 0.0713 2.1865 0.27331 3.2797 0.20203 1.0878 0.59035 2.0936 1.0932 3.0064 0.50835 0.90739 1.1971 1.618 2.0498 2.1865 0.85272 0.57942 1.9514 0.81993 3.2797 0.81993 0.62862 0 1.2026-0.035 1.7765-0.13643 0.57395-0.0985 1.1807-0.279 1.6399-0.40976 0.45916-0.13643 0.77074-0.2733 1.0932-0.40975l0.68307-0.2733-0.68329-1.9132-0.68327 0.40974c-0.29518 0.14738-0.70515 0.27332-1.0932 0.40975-0.39357 0.1312-0.76527 0.17492-1.2299 0.27332-0.45915 0.10363-0.89645 0.27331-1.3666 0.27331-0.78714 0-1.4868-0.2462-2.0498-0.68328-0.56302-0.4373-1.0058-0.97845-1.3666-1.6399-0.36078-0.66688-0.65049-1.4212-0.81994-2.1865-0.16924-0.75981-0.27331-1.5142-0.27331-2.1865h10.113v-0.81993c0-0.89099-0.0603-1.8804-0.27331-2.8698-0.21865-0.9894-0.61222-1.8968-1.0932-2.7331-0.4865-0.8254-1.1315-1.5087-1.9132-2.0498-0.79261-0.53568-1.7219-0.81993-2.8698-0.81993zm47.146 0c-1.1862 0-2.1592 0.36077-3.0064 0.95659-0.8418 0.59581-1.5141 1.3228-2.0498 2.1865-0.54115 0.86913-0.98939 1.7656-1.2299 2.7331-0.25145 0.96752-0.40975 1.8367-0.40975 2.5965 0 0.94565 0.19678 1.9132 0.40975 3.0064 0.21296 1.0878 0.59035 2.0881 1.0932 3.0064 0.50835 0.91833 1.1862 1.7055 2.0498 2.3232 0.86913 0.61221 1.864 0.95658 3.1431 0.95658 1.2354 0 2.2904-0.34459 3.1431-0.95658 0.85273-0.61769 1.5305-1.3884 2.0498-2.3232 0.51929-0.93473 0.8582-1.9132 1.0932-3.0064 0.23483-1.0878 0.40976-2.0826 0.40976-3.0064 0-0.78168-0.0494-1.6235-0.27332-2.5965-0.22958-0.97845-0.70514-1.8804-1.2299-2.7331-0.51383-0.8582-1.1971-1.6071-2.0498-2.1865-0.85274-0.58489-1.8859-0.95659-3.1431-0.95659zm17.355 0c-1.0277 0-1.9132 0.28949-2.7331 0.81993-0.81994 0.52477-1.4814 1.2354-2.0498 2.0498-0.57943 0.80354-1.0495 1.7383-1.3666 2.7331-0.31704 1.0003-0.54662 1.9241-0.54662 2.8698 0 1.1479 0.17492 2.3067 0.40975 3.4164 0.23483 1.1151 0.57941 2.1318 1.0932 3.0064 0.51928 0.8746 1.208 1.5087 2.0498 2.0498 0.84179 0.53569 1.9241 0.81993 3.1431 0.81993 0.55756 0 1.1206-0.0262 1.6399-0.13643 0.51929-0.0985 0.95113-0.27331 1.3666-0.40976 0.41543-0.13643 0.67782-0.2733 0.9566-0.40975l0.68327-0.2733-0.81994-1.9132-0.54662 0.40974-0.95658 0.40975c-0.34984 0.1312-0.71062 0.18585-1.0932 0.27332-0.38264 0.0927-0.73247 0.13643-1.0932 0.13643-0.75981 0-1.5032-0.24052-2.0498-0.68327-0.55209-0.4373-1.0167-0.9402-1.3666-1.6399-0.34984-0.68875-0.52475-1.5743-0.68327-2.4598-0.15831-0.88553-0.27332-1.7219-0.27332-2.5964 0-0.71608 0.0765-1.4267 0.27332-2.1865 0.18585-0.76527 0.45915-1.5469 0.81993-2.1865 0.36077-0.63955 0.84179-1.0987 1.3666-1.5032 0.53022-0.39926 1.1042-0.68328 1.7765-0.68328l1.0932 0.13644 0.95658 0.40974 0.95659 0.40975 0.40976 0.27332 0.81992-1.9132-0.54662-0.40975-0.95658-0.2733c-0.37739-0.12026-0.75434-0.31705-1.2299-0.40976-0.47009-0.0875-1.0058-0.13643-1.5032-0.13643zm31.294 0c-0.74341 0-1.3994 0.16398-2.0498 0.40975-0.65595 0.25145-1.2736 0.64501-1.7765 1.0932-0.50835 0.44823-0.94019 1.0112-1.2299 1.6399-0.29517 0.62861-0.40975 1.3064-0.40975 2.0498 0 0.69421 0.15831 1.2572 0.54663 1.7765 0.39357 0.51929 0.90739 0.94019 1.5032 1.3666 0.59582 0.42636 1.219 0.86366 1.9132 1.2299 0.69967 0.37695 1.3174 0.72155 1.9132 1.0932 0.59581 0.3717 1.1096 0.83633 1.5032 1.2299s0.68328 0.73794 0.68328 1.2299c0 0.88007-0.31704 1.5579-0.95658 2.0498-0.63955 0.49742-1.465 0.81993-2.3232 0.81993-0.4045 0-0.8746-0.0218-1.3666-0.13644-0.49743-0.10929-0.92926-0.28424-1.3666-0.40975-0.4373-0.14212-0.7598-0.26237-1.0932-0.40975l-0.6835-0.40974-0.81994 1.9132 0.81994 0.40975c0.32798 0.13643 0.64501 0.2733 1.0932 0.40975 0.44276 0.13643 1.0604 0.18016 1.6399 0.27331 0.56848 0.0875 1.1042 0.13643 1.7765 0.13643 0.76527 0 1.4978-0.16398 2.1865-0.40974 0.68874-0.24621 1.2736-0.50837 1.7765-0.95659 0.50835-0.4537 0.94018-1.0222 1.2299-1.6399 0.28992-0.61768 0.40975-1.3283 0.40975-2.0498 0-0.62861-0.14213-1.137-0.54663-1.6399-0.4045-0.50836-0.90739-0.94019-1.5032-1.3666-0.59035-0.42637-1.2026-0.85819-1.9132-1.2299-0.71062-0.36646-1.454-0.70514-2.0498-1.0932-0.59035-0.37739-1.1042-0.80354-1.5032-1.2299-0.4045-0.42637-0.54662-0.86914-0.54662-1.3666 0-0.88005 0.34459-1.6563 0.95659-2.1865 0.6013-0.53022 1.3283-0.81993 2.1865-0.81993l0.95659 0.13644 1.0932 0.40975 0.81993 0.40975 0.54662 0.2733 0.68328-1.7765-0.54663-0.40975c-0.26763-0.12025-0.57395-0.16398-0.95658-0.27331-0.38264-0.10929-0.77074-0.32272-1.2299-0.40975-0.45916-0.0931-0.91285-0.13643-1.3666-0.13643zm15.442 0c-1.0331 0-1.9132 0.28949-2.7331 0.81993-0.81993 0.52477-1.6125 1.2354-2.1865 2.0498-0.57395 0.80354-0.91286 1.7383-1.2299 2.7331-0.31703 1.0003-0.54662 1.9241-0.54662 2.8698 0 1.1479 0.17492 2.3067 0.40975 3.4164 0.23483 1.1151 0.57395 2.1318 1.0932 3.0064 0.51383 0.8746 1.208 1.5087 2.0498 2.0498 0.8418 0.53569 1.7929 0.81993 3.0064 0.81993 0.55755 0 1.1206-0.0262 1.6399-0.13643 0.51929-0.0985 1.0878-0.27331 1.5032-0.40976 0.41543-0.13643 0.67234-0.2733 0.95658-0.40975l0.54685-0.2733-0.68328-1.9132-0.68327 0.40974-0.81995 0.40975c-0.34983 0.1312-0.7106 0.18585-1.0932 0.27332-0.38263 0.0927-0.86366 0.13643-1.2299 0.13643-0.7598 0-1.3611-0.24052-1.9132-0.68327-0.55209-0.4373-1.0167-0.9402-1.3666-1.6399-0.34983-0.68875-0.53022-1.5743-0.68328-2.4598-0.1583-0.88553-0.2733-1.7219-0.2733-2.5964 0-0.71608 0.0822-1.4267 0.2733-2.1865 0.1911-0.76527 0.45917-1.5469 0.81994-2.1865 0.36078-0.63955 0.8418-1.0987 1.3666-1.5032 0.52475-0.39926 1.0987-0.68328 1.7765-0.68328l0.95659 0.13644 1.0932 0.40974 0.95658 0.40975 0.40975 0.27332 0.68328-1.9132-0.40974-0.40975-0.9566-0.2733c-0.36645-0.12026-0.75434-0.31705-1.2299-0.40976-0.4701-0.0875-1.0112-0.13643-1.5032-0.13643zm58.352 0c-1.0331 0-1.9624 0.39881-2.7331 0.95659-0.78166 0.56849-1.383 1.208-1.9132 2.0498-0.52475 0.8418-0.96205 1.7492-1.2299 2.7331-0.26762 0.98939-0.40975 1.9077-0.40975 2.7331 0 1.055 0.20203 2.1865 0.40975 3.2797 0.19111 1.0878 0.4537 2.0936 0.9566 3.0064 0.50835 0.90739 1.1971 1.618 2.0498 2.1865 0.85274 0.57942 1.9514 0.81993 3.2797 0.81993 0.63407 0 1.208-0.035 1.7765-0.13643 0.57395-0.0985 1.1807-0.279 1.6399-0.40976 0.46463-0.13643 0.76527-0.2733 1.0932-0.40975l0.68327-0.2733-0.68327-1.9132-0.68328 0.40974c-0.28994 0.14738-0.56302 0.27332-0.95659 0.40975-0.39358 0.1312-0.9074 0.17492-1.3666 0.27332-0.46464 0.10363-0.89099 0.27331-1.3666 0.27331-0.78713 0-1.4868-0.2462-2.0498-0.68328-0.56302-0.4373-1.0058-0.97845-1.3666-1.6399-0.36078-0.66688-0.65048-1.4212-0.81993-2.1865-0.164-0.75981-0.27332-1.5142-0.27332-2.1865h10.113v-0.81993c0-0.89099-0.0603-1.8804-0.2733-2.8698-0.20772-0.9894-0.60675-1.8968-1.0932-2.7331-0.48102-0.8254-1.126-1.5087-1.9132-2.0498-0.78714-0.53568-1.7219-0.81993-2.8698-0.81993zm-218.38 0.40975v11.616c0 0.74342 0.20771 1.4923 0.40974 2.1865 0.20203 0.69968 0.53022 1.2518 0.95659 1.7765 0.42637 0.53022 0.97845 1.044 1.6399 1.3666 0.66142 0.32797 1.3994 0.40974 2.3232 0.40974 0.60675 0 1.1315-0.16398 1.6399-0.40974 0.50289-0.25145 0.98392-0.50837 1.3666-0.81994 0.38264-0.31703 0.72155-0.64501 0.95659-0.95658l0.40976-0.54663v2.3232h2.1865v-16.945h-2.3232v12.299l-0.40975 0.68329-0.81994 1.0932c-0.36077 0.36076-0.7598 0.67234-1.2299 0.95658-0.47555 0.28425-0.96205 0.40975-1.5032 0.40975-0.58488 0-1.0987-0.17492-1.5032-0.40975-0.40406-0.23526-0.7104-0.44822-0.95638-0.81993-0.24575-0.3717-0.42068-0.88552-0.54662-1.3666-0.12025-0.48648-0.2733-0.98392-0.2733-1.5032v-11.342h-2.3232zm186.54 0v11.616c0 0.74342 0.0713 1.4923 0.2733 2.1865 0.20205 0.69968 0.52477 1.2518 0.9566 1.7765 0.42068 0.53022 0.97299 1.044 1.6399 1.3666 0.66142 0.32797 1.4048 0.40974 2.3231 0.40974 0.60675 0 1.2682-0.16398 1.7765-0.40974 0.50289-0.25145 0.85274-0.50837 1.2299-0.81994 0.38264-0.31703 0.72154-0.64501 0.95659-0.95658l0.54662-0.54663v2.3232h2.1865v-16.945h-2.3232v12.299l-0.40975 0.68329-0.81993 1.0932c-0.36077 0.36076-0.75434 0.67234-1.2299 0.95658-0.47009 0.28425-1.0932 0.40975-1.6399 0.40975-0.57942 0-0.96752-0.17492-1.3666-0.40975-0.40975-0.23526-0.8418-0.44822-1.0932-0.81993-0.24576-0.3717-0.42636-0.88552-0.54662-1.3666-0.12595-0.48648-0.13644-0.98392-0.13644-1.5032v-11.342h-2.3231zm-137.75 1.5032c0.69967 0 1.2791 0.13119 1.7765 0.54662 0.49742 0.42068 0.92925 0.91833 1.2299 1.5032 0.30086 0.58489 0.53569 1.2408 0.68327 1.9132 0.14738 0.67235 0.27332 1.2791 0.27332 1.7765h-7.7894c0-0.56303 0.1041-1.2518 0.27331-1.9132 0.16399-0.66688 0.36646-1.1916 0.68329-1.7765 0.31703-0.59035 0.73247-1.1096 1.2299-1.5032 0.49195-0.38832 0.98938-0.54662 1.6399-0.54662zm47.146 0c0.809 0 1.5142 0.34984 2.0498 0.81994 0.54116 0.47009 1.0276 0.96205 1.3666 1.6399 0.32797 0.67234 0.54662 1.4431 0.68327 2.1865 0.1312 0.7434 0.13645 1.3502 0.13645 1.9132 0 0.67234-0.0176 1.4649-0.13645 2.3231-0.12025 0.85273-0.35552 1.5634-0.68327 2.3232-0.32273 0.74887-0.81448 1.4048-1.3666 1.9132-0.55209 0.52476-1.219 0.81993-2.0498 0.81993-0.85272 0-1.4977-0.29517-2.0498-0.81993-0.55208-0.50836-1.055-1.1643-1.3666-1.9132-0.31704-0.7598-0.42068-1.4704-0.54662-2.3232-0.12595-0.8582-0.27332-1.6508-0.27332-2.3231 0-0.6013 0.12594-1.301 0.27332-2.0498 0.14737-0.75434 0.34459-1.383 0.68327-2.0498 0.33367-0.65595 0.8254-1.3283 1.3666-1.7765 0.54115-0.44823 1.126-0.68328 1.9132-0.68328zm122.58 0c0.68875 0 1.2791 0.13119 1.7765 0.54662 0.48649 0.42068 0.78167 0.91833 1.0932 1.5032 0.30085 0.58489 0.53568 1.2408 0.68328 1.9132 0.14212 0.67235 0.2733 1.2791 0.2733 1.7765h-7.7894c0-0.56303 0.1041-1.2518 0.27332-1.9132 0.16923-0.66688 0.3717-1.1916 0.68328-1.7765 0.31704-0.59035 0.73247-1.1096 1.2299-1.5032 0.49742-0.38832 1.126-0.54662 1.7765-0.54662zm-192.41 6.6961v4.0997l-0.54662 1.0932c-0.26763 0.37172-0.56303 0.77075-0.9566 1.0932-0.39357 0.32797-0.88552 0.46464-1.3666 0.68329-0.4865 0.20771-0.98392 0.40974-1.5032 0.40974-0.8254 0-1.4759-0.279-2.0498-0.81993-0.57395-0.54115-0.81993-1.2408-0.81993-2.1865 0-0.4701 0.12026-0.9566 0.40976-1.3666 0.29517-0.40451 0.65047-0.77621 1.0932-1.0932 0.4373-0.3118 0.96205-0.59582 1.5032-0.81994 0.53569-0.22958 1.0331-0.43161 1.5032-0.54663l2.7331-0.54662zm-1.5032 21.865v9.2926l-0.54662-0.68328-0.81993-0.95659c-0.35553-0.30085-0.77074-0.45916-1.2299-0.68328-0.45916-0.22432-0.98392-0.40975-1.5032-0.40975-0.96752 0-1.7984 0.32798-2.5965 0.81994s-1.4868 1.0987-2.0498 1.9132c-0.55756 0.80354-1.0604 1.7383-1.3666 2.7331-0.30611 1.0003-0.40975 1.9952-0.40975 3.0064 0 1.0932 0.16924 2.1646 0.40975 3.2797 0.23483 1.1096 0.57395 2.1154 1.0932 3.0064 0.5193 0.88554 1.1042 1.6344 1.9132 2.1865 0.80354 0.5521 1.8367 0.81994 3.0064 0.81994 0.49743 0 1.0222-0.17492 1.5032-0.40975 0.4865-0.23527 0.83634-0.50289 1.2299-0.81994 0.39356-0.31178 0.7106-0.63955 0.95658-0.95658l0.54663-0.68328v2.4598h2.1865v-23.915h-2.3232zm175.6 0v23.505c0.20772 0.0489 0.48102 0.18585 0.95659 0.27332 0.4701 0.0927 0.96205 0.18585 1.5032 0.27331 0.54116 0.0927 1.1096 0.0765 1.6399 0.13644 0.52476 0.0547 1.0331 0.13644 1.3666 0.13644 1.2135 0 2.2193-0.25714 3.1431-0.81995 0.91832-0.55755 1.7-1.2955 2.3231-2.1865 0.63409-0.88553 1.055-1.9023 1.3666-3.0064 0.3118-1.0987 0.54663-2.181 0.54663-3.2797 0-0.94018-0.17492-2.0061-0.40975-3.0064-0.23483-0.99485-0.57942-1.782-1.0932-2.5964-0.51929-0.80355-1.2354-1.5251-2.0498-2.0498-0.80353-0.53023-1.7218-0.81993-2.8698-0.81993-0.51382 0-1.0386 0.17491-1.5032 0.40974-0.47557 0.24052-0.8582 0.50836-1.2299 0.81994l-0.9566 0.95658-0.40975 0.54662v-9.2926h-2.3231zm-92.106 0.81993c-0.44823 0-0.80353 0.24577-1.0932 0.54662-0.29519 0.30043-0.40975 0.66142-0.40975 1.0932 0 0.42068 0.11506 0.78714 0.40975 1.0932 0.28993 0.30611 0.64501 0.40975 1.0932 0.40975s0.78714-0.10409 1.0932-0.40975c0.30087-0.3061 0.54663-0.67235 0.54663-1.0932 0-0.43161-0.24576-0.79261-0.54663-1.0932-0.3061-0.30085-0.64501-0.54662-1.0932-0.54662zm5.7396 0c-0.44824 0-0.80355 0.24577-1.0932 0.54662-0.28994 0.30043-0.40975 0.66142-0.40975 1.0932 0 0.42068 0.12025 0.78714 0.40975 1.0932 0.28992 0.30611 0.64501 0.40975 1.0932 0.40975 0.45369 0 0.92925-0.10409 1.2299-0.40975 0.30086-0.3061 0.40976-0.67235 0.40976-1.0932 0-0.43161-0.10929-0.79261-0.40976-1.0932-0.30086-0.30085-0.7762-0.54662-1.2299-0.54662zm-132.83 0.54662v22.548h5.7395c1.055 0 1.9296-0.11506 2.8698-0.40975 0.94566-0.28992 1.8913-0.809 2.5965-1.3666 0.71061-0.54662 1.2354-1.1042 1.6399-1.9132 0.4045-0.809 0.54662-1.7218 0.54662-2.7331 0-0.69969-0.15306-1.4322-0.40975-2.0498-0.26237-0.61768-0.51929-1.1643-0.95659-1.6399-0.44276-0.4701-0.92925-0.7926-1.5032-1.0932-0.56849-0.31179-1.2791-0.56848-1.9132-0.68327 0.4537-0.13644 1.0222-0.38263 1.5032-0.68328 0.4865-0.30087 0.8254-0.65049 1.2299-1.0932 0.4045-0.4373 0.81993-0.95659 1.0932-1.5032 0.26763-0.55209 0.40975-1.0331 0.40975-1.6399 0-0.96753-0.17492-1.8858-0.54662-2.5965-0.3717-0.70514-0.88554-1.3174-1.5032-1.7765-0.61768-0.45917-1.3666-0.72701-2.1865-0.95659-0.81993-0.22434-1.5852-0.40975-2.4598-0.40975h-6.1495zm94.839 0 5.1929 22.548h2.7331l4.783-19.405 4.9196 19.405h2.7331l5.1929-22.548h-2.4598l-4.0997 19.405-4.783-19.405h-2.7331l-4.783 19.405-4.0997-19.405h-2.5964zm59.582 1.0932v4.5096h-2.7331v1.9132h2.7331v11.752c0 0.47557 0.14736 0.91833 0.2733 1.3666 0.12027 0.4537 0.26763 0.88552 0.54663 1.2299 0.28424 0.34983 0.62861 0.61768 1.0932 0.81993 0.45917 0.20203 1.1042 0.27331 1.7765 0.27331l0.68328-0.13644 0.81994-0.13644 0.68328-0.13643 0.40975-0.13643-0.68328-1.9132c-0.13644 0.0875-0.4373 0.15305-0.81994 0.27332-0.38263 0.1255-0.63955 0.2733-0.95658 0.2733-0.5193 0-0.8746-0.24619-1.0932-0.68327-0.20772-0.4373-0.40975-0.89647-0.40975-1.3666v-11.479h3.4164v-1.9132h-3.4164v-4.5096h-2.3231zm11.616 0v4.5096h-2.8698v1.9132h2.8698v11.752c0 0.47557 9e-3 0.91833 0.13644 1.3666 0.12593 0.4537 0.27331 0.88552 0.54662 1.2299 0.28424 0.34983 0.63408 0.61768 1.0932 0.81993 0.46464 0.20203 1.1042 0.27331 1.7765 0.27331l0.68328-0.13644 0.81993-0.13644 0.68327-0.13643 0.40976-0.13643-0.68284-1.9132c-0.13644 0.0875-0.30087 0.15305-0.68328 0.27332-0.38264 0.1255-0.77621 0.2733-1.0932 0.2733-0.51383 0-0.88007-0.24619-1.0932-0.68327-0.21297-0.4373-0.27332-0.89647-0.27332-1.3666v-11.479h3.2797v-1.9132h-3.2797v-4.5096h-2.3231zm-163.58 0.95659h3.6897c1.2572 0 2.2193 0.27856 3.0064 0.95659 0.78167 0.66688 1.2299 1.5907 1.2299 2.7331 0 0.58489-0.16398 1.1424-0.40974 1.6399-0.24577 0.49196-0.55209 1.0112-0.95659 1.3666-0.4045 0.36077-0.85273 0.61768-1.3666 0.81993-0.51382 0.20203-1.0768 0.27332-1.6398 0.27332h-3.5531v-7.7894zm20.362 3.1431c-0.58488 0-1.2026 0.13645-1.7765 0.27332-0.57395 0.13644-1.0331 0.23483-1.5032 0.40975-0.47009 0.18016-0.89099 0.38832-1.2299 0.54663l-0.68327 0.2733 0.68327 1.9132 0.68329-0.40974c0.32272-0.17492 0.68873-0.37739 1.0932-0.54663 0.40452-0.16967 0.78168-0.27331 1.2299-0.40975 0.45369-0.13643 0.87459-0.27331 1.2299-0.27331 1.2135 0 2.1428 0.47009 2.7331 1.2299 0.59581 0.74887 0.81993 1.6344 0.81993 2.7331v1.0932l-3.2797 0.81994c-0.65595 0.13643-1.2955 0.3717-2.0498 0.68327-0.74887 0.31705-1.4103 0.64502-2.0498 1.0932s-1.2299 1.0331-1.6399 1.6399c-0.42068 0.60675-0.68327 1.1916-0.68327 1.9132 0 1.5032 0.55209 2.7222 1.5032 3.553 0.95659 0.83086 2.2084 1.2299 3.6897 1.2299 0.62862 0 1.2244-0.17492 1.7765-0.40975 0.5521-0.23527 0.9402-0.50289 1.3666-0.81994 0.42636-0.3061 0.83633-0.63955 1.0932-0.95658l0.40974-0.68328v2.4598h2.1865v-11.752c0-1.8421-0.48103-3.1431-1.5032-4.0997-1.0222-0.95112-2.3887-1.5032-4.0997-1.5032zm33.617 0c-1.0331 0-1.9624 0.26239-2.7331 0.81994-0.77621 0.56303-1.5251 1.3447-2.0498 2.1865s-0.8254 1.7382-1.0932 2.7331c-0.26763 0.98938-0.40974 1.9022-0.40974 2.7331 0 1.055 0.0713 2.0498 0.27331 3.1431 0.20203 1.0878 0.59035 2.099 1.0932 3.0064 0.5029 0.91286 1.1971 1.7492 2.0498 2.3231 0.85273 0.5685 1.9514 0.81994 3.2797 0.81994 0.62862 0 1.2026-0.0394 1.7765-0.13644 0.57397-0.1041 1.0441-0.27331 1.5032-0.40974 0.45917-0.1312 0.90193-0.279 1.2299-0.40975l0.68329-0.27332-0.68329-1.9132-0.81993 0.40976c-0.29517 0.15305-0.56302 0.27855-0.95659 0.40975-0.39357 0.14212-0.77073 0.16398-1.2299 0.2733-0.45917 0.0984-1.0276 0.13644-1.5032 0.13644-0.78713 0-1.3556-0.10929-1.9132-0.54663-0.56303-0.4373-1.1479-1.1096-1.5032-1.7765-0.36077-0.65595-0.51383-1.2846-0.68328-2.0498-0.16923-0.75981-0.2733-1.5141-0.2733-2.1865h10.113v-0.81994c0-0.90193-0.19678-1.8804-0.40974-2.8698-0.21297-0.98938-0.4701-1.8968-0.95659-2.7331-0.48103-0.83085-1.126-1.5087-1.9132-2.0498-0.78714-0.53569-1.7273-0.81994-2.8698-0.81994zm17.765 0c-0.58488 0-1.126 0.15831-1.6399 0.40976-0.51382 0.24575-1.0987 0.51382-1.5032 0.81994-0.39926 0.31703-0.70515 0.65047-0.9566 0.95658l-0.40975 0.54662v-2.3231h-2.1865v16.945h2.3231v-12.162l0.40976-0.95659 0.81994-0.9566c0.3717-0.34983 0.88005-0.7106 1.3666-0.95658 0.48102-0.24052 0.98392-0.40975 1.5032-0.40975 0.54116 0 0.95113 0.16923 1.3666 0.40975 0.41543 0.24576 0.8254 0.56301 1.0932 0.95658 0.27331 0.39358 0.39925 0.88553 0.54663 1.3666 0.14736 0.48648 0.2733 0.91832 0.2733 1.3666v11.342h2.3232v-11.616c0-0.69968-0.19109-1.3666-0.40974-2.0498-0.2239-0.68874-0.51383-1.3775-0.95659-1.9132-0.43205-0.54117-0.96775-0.90194-1.6401-1.2299-0.67781-0.32272-1.4322-0.54663-2.3232-0.54663zm73.384 0c-0.58489 0-1.1807 0.15307-1.6399 0.40976-0.45917 0.24051-0.89099 0.49742-1.2299 0.81994l-0.68329 0.95658-0.40974 0.54662v-2.3231h-2.1865v16.945h2.3232v-12.162l0.2733-0.68329 0.81994-1.0932c0.3118-0.33891 0.69421-0.55756 1.0932-0.81993 0.40974-0.25145 0.78145-0.40975 1.2297-0.40975l0.68328 0.13644 0.68327 0.27331 0.68329-2.0498-0.68329-0.40974-0.95658-0.13645zm34.027 0c-1.0276 0-1.9569 0.26239-2.7331 0.81994-0.77621 0.56303-1.383 1.3447-1.9132 2.1865-0.52477 0.8418-0.96206 1.7382-1.2299 2.7331-0.27331 0.98938-0.40974 1.9022-0.40974 2.7331 0 1.055 0.20771 2.0498 0.40974 3.1431 0.20772 1.0878 0.4537 2.099 0.95659 3.0064 0.5029 0.91286 1.1971 1.7492 2.0498 2.3231 0.85273 0.5685 1.9514 0.81994 3.2797 0.81994 0.62862 0 1.2026-0.0394 1.7765-0.13644 0.57396-0.1041 1.1752-0.27331 1.6399-0.40974 0.45369-0.1312 0.77074-0.279 1.0932-0.40975l0.68329-0.27332-0.68329-1.9132-0.68328 0.40976c-0.29517 0.15305-0.69967 0.27855-1.0932 0.40975-0.38832 0.14212-0.77073 0.16398-1.2299 0.2733-0.45916 0.0984-0.891 0.13644-1.3666 0.13644-0.78168 0-1.4868-0.10929-2.0498-0.54663-0.56303-0.4373-1.0003-1.1096-1.3666-1.7765-0.36077-0.65595-0.65049-1.2846-0.81994-2.0498-0.16923-0.75981-0.2733-1.5141-0.2733-2.1865h10.113v-0.81994c0-0.90193-0.0656-1.8804-0.27332-2.8698-0.21865-0.98938-0.60675-1.8968-1.0932-2.7331-0.48103-0.83085-1.126-1.5087-1.9132-2.0498-0.78714-0.53569-1.7219-0.81994-2.8698-0.81994zm17.355 0c-0.62861 0-1.137 0.15831-1.6399 0.40976-0.50836 0.24575-1.0167 0.49742-1.3666 0.81994l-0.81993 0.95658-0.40975 0.54662v-2.3231h-2.1865v16.945h2.3232v-12.162l0.40975-0.95659 0.68328-0.9566c0.34459-0.34983 0.7762-0.7106 1.2299-0.95658 0.45916-0.24052 0.96206-0.40975 1.5032-0.40975 0.60675 0 1.1096 0.17492 1.5032 0.40975 0.39356 0.23483 0.71608 0.57395 0.95658 0.95658 0.23483 0.38265 0.44824 0.74342 0.54663 1.2299 0.0984 0.48104 0.13644 1.0058 0.13644 1.5032v11.342h2.3232v-12.436l0.2733-0.95659 0.81994-0.95658c0.32798-0.30087 0.76528-0.4701 1.2299-0.68328 0.45916-0.21341 0.91833-0.40975 1.5032-0.40975 0.56302 0 1.0987 0.17492 1.5032 0.40975s0.71608 0.57395 0.9566 0.95658c0.22958 0.38265 0.42636 0.74342 0.54662 1.2299 0.1041 0.48104 0.13644 1.0058 0.13644 1.5032v11.342h2.3231v-11.616c0-0.69968-0.1041-1.3666-0.2733-2.0498-0.164-0.68874-0.42069-1.3775-0.81995-1.9132-0.4045-0.54117-0.97845-0.90194-1.6399-1.2299-0.6614-0.32272-1.4923-0.54663-2.4598-0.54663-0.67235 0-1.2299 0.15831-1.7765 0.40976-0.55209 0.24577-1.1042 0.51382-1.5032 0.81994-0.39357 0.31703-0.58488 0.65047-0.81993 0.95658l-0.54663 0.54662-0.40975-0.68327-0.81993-0.9566c-0.35553-0.30085-0.81447-0.45915-1.3666-0.68327-0.55209-0.22433-1.219-0.40976-2.0498-0.40976zm42.773 0c-1.0331 0-1.9624 0.26239-2.7331 0.81994-0.77621 0.56303-1.383 1.3447-1.9132 2.1865-0.52477 0.8418-0.96752 1.7382-1.2299 2.7331-0.27899 0.98938-0.40975 1.9022-0.40975 2.7331 0 1.055 0.20203 2.0498 0.40975 3.1431 0.20203 1.0878 0.4537 2.099 0.95658 3.0064 0.50837 0.91286 1.1971 1.7492 2.0498 2.3231 0.85273 0.5685 1.946 0.81994 3.2797 0.81994 0.62315 0 1.1971-0.0394 1.7765-0.13644 0.56849-0.1041 1.1807-0.27331 1.6399-0.40974 0.46463-0.1312 0.76528-0.279 1.0932-0.40975l0.68328-0.27332-0.68328-1.9132-0.68329 0.40976c-0.29517 0.15305-0.56848 0.27855-0.95658 0.40975-0.39357 0.14212-0.90739 0.16398-1.3666 0.2733-0.4537 0.0984-0.89646 0.13644-1.3666 0.13644-0.78168 0-1.4923-0.10929-2.0498-0.54663-0.56849-0.4373-1.0003-1.1096-1.3666-1.7765-0.35552-0.65595-0.65047-1.2846-0.81994-2.0498-0.16923-0.75981-0.2733-1.5141-0.2733-2.1865h10.113v-0.81994c0-0.90193-0.0547-1.8804-0.27332-2.8698-0.21296-0.98938-0.61221-1.8968-1.0932-2.7331-0.48103-0.83085-0.98938-1.5087-1.7765-2.0498-0.78167-0.53569-1.864-0.81994-3.0064-0.81994zm17.082 0c-0.58488 0-1.1807 0.15307-1.6399 0.40976-0.46462 0.24051-0.7598 0.49742-1.0932 0.81994l-0.81993 0.95658-0.40975 0.54662v-2.3231h-2.1865v16.945h2.3232v-12.162l0.40975-0.68329 0.68328-1.0932c0.31179-0.33891 0.68874-0.55756 1.0932-0.81993 0.4045-0.25145 0.78168-0.40975 1.2299-0.40975l0.81994 0.13644 0.54663 0.27331 0.68327-2.0498-0.68327-0.40974-0.9566-0.13645zm10.113 0c-0.80354 0-1.4814 0.21298-2.1865 0.54663-0.70514 0.33891-1.383 0.81447-1.9132 1.3666-0.52477 0.55755-0.9238 1.0823-1.2299 1.7765-0.30612 0.69968-0.40975 1.465-0.40975 2.1865 0 0.96752 0.0262 1.7765 0.2733 2.4598 0.24577 0.68874 0.59036 1.3119 0.9566 1.7765 0.3717 0.45917 0.8254 0.69967 1.2299 0.95659 0.4045 0.2567 0.7762 0.56849 1.0932 0.68328l-0.68327 0.13643-0.81994 0.54662-0.54663 0.68329-0.2733 0.81993c0 0.4045 0.0875 0.79807 0.2733 1.0932l0.68329 0.68327 0.68328 0.40976 0.68327 0.13643c-0.31179 0.0218-0.73794 0.21865-1.2299 0.40975-0.49742 0.18585-0.89646 0.34984-1.3666 0.68328-0.47008 0.33891-0.88553 0.85819-1.2299 1.3666-0.34983 0.50288-0.54662 0.98938-0.54662 1.6399 0 0.67234 0.0765 1.3447 0.40975 1.9132 0.3389 0.57395 0.92926 1.0823 1.5032 1.5032 0.59035 0.41543 1.2299 0.71608 2.0498 0.95658 0.82542 0.24577 1.6563 0.40976 2.5965 0.40976 1.0604 0 2.0006-0.10929 2.8698-0.40976 0.85819-0.30085 1.7-0.73793 2.3231-1.2299 0.61769-0.49195 1.0222-1.055 1.3666-1.6399 0.33365-0.58488 0.54662-1.1916 0.54662-1.7765 0-0.76527-0.16399-1.4595-0.54662-2.0498-0.38265-0.59581-0.9894-1.0878-1.6399-1.5032-0.65595-0.41544-1.3338-0.73795-2.1865-0.9566-0.85274-0.20772-1.8093-0.2733-2.7331-0.2733-0.71608 0-1.3119-0.22959-1.7765-0.54663-0.4537-0.31704-0.68328-0.60129-0.68328-1.0932l0.2733-0.68328 0.68328-0.40975 0.81994-0.40975 0.68328-0.13643c0.83087 0 1.6071-0.0875 2.3231-0.40975 0.71608-0.32798 1.4048-0.80355 1.9132-1.3666 0.52476-0.56301 0.94019-1.2955 1.2299-2.0498 0.28992-0.75434 0.40974-1.465 0.40974-2.3231 0-0.4701-0.0218-0.95113-0.13643-1.3666-0.10929-0.42112-0.26238-0.76527-0.40976-1.0932l-0.40973-0.81993-0.40976-0.54663h2.7331v-1.6399h-4.783c-0.20203-0.0713-0.49742-0.17492-0.95659-0.2733-0.46463-0.10929-0.98391-0.13645-1.5032-0.13645zm-144.86 0.40976v11.616c0 0.7434 0.0713 1.4923 0.27332 2.1865 0.20203 0.69967 0.53022 1.2518 0.95658 1.7765 0.42637 0.53023 0.98392 0.90193 1.6399 1.2299 0.66688 0.32797 1.3939 0.54662 2.3232 0.54662 0.60129 0 1.137-0.16399 1.6399-0.40975 0.50289-0.24619 0.98392-0.50289 1.3666-0.81993 0.38263-0.31179 0.71608-0.63954 0.95658-0.95659l0.40976-0.68328v2.4598h2.1865v-16.945h-2.3232v12.162l-0.27332 0.81993-0.95658 1.0932c-0.35509 0.36078-0.75959 0.67782-1.2297 0.9566-0.47008 0.28423-0.96752 0.40974-1.5032 0.40974-0.5849 0-1.0987-0.17491-1.5032-0.40974-0.4045-0.23527-0.70515-0.44824-0.95659-0.81994-0.24576-0.3717-0.42636-0.88553-0.54663-1.3666-0.12593-0.48649-0.13643-0.98939-0.13643-1.5032v-11.342h-2.3232zm-67.645 1.3666c0.69421 0 1.2791 0.26238 1.7765 0.68328 0.49195 0.41542 0.92379 0.92379 1.2299 1.5032 0.30087 0.58489 0.5357 1.2408 0.68328 1.9132 0.14212 0.67234 0.13643 1.2846 0.13643 1.7765h-7.7894c0-0.55755 0.10409-1.2463 0.2733-1.9132 0.16924-0.65594 0.36647-1.1916 0.68328-1.7765 0.31179-0.59035 0.73247-1.1096 1.2299-1.5032 0.49196-0.39358 1.126-0.68328 1.7765-0.68328zm125.18 0c0.69421 0 1.2846 0.26238 1.7765 0.68328 0.49743 0.41542 0.9238 0.92379 1.2299 1.5032 0.30087 0.58489 0.5357 1.2408 0.68328 1.9132 0.14212 0.67234 0.27332 1.2846 0.27332 1.7765h-7.7894c0-0.55755 0.10929-1.2463 0.2733-1.9132 0.16925-0.65594 0.37172-1.1916 0.68329-1.7765 0.31704-0.59035 0.73248-1.1096 1.2299-1.5032 0.49196-0.39358 0.98392-0.68328 1.6399-0.68328zm60.265 0c0.69968 0 1.2791 0.26238 1.7765 0.68328 0.49742 0.41542 0.78714 0.92379 1.0932 1.5032 0.30087 0.58489 0.5357 1.2408 0.68328 1.9132 0.14737 0.67234 0.27332 1.2846 0.27332 1.7765h-7.7894c0-0.55755 0.10929-1.2463 0.27332-1.9132 0.16923-0.65594 0.3717-1.1916 0.68327-1.7765 0.31705-0.59035 0.73248-1.1096 1.2299-1.5032 0.49197-0.39358 1.126-0.68328 1.7765-0.68328zm27.058 0c1.0823 0 1.9842 0.34415 2.5965 1.0932 0.62315 0.75433 0.95658 1.771 0.95658 3.0064 0 0.51382-0.15305 0.97298-0.2733 1.5032-0.12595 0.52477-0.27332 1.0714-0.54663 1.5032-0.28424 0.42068-0.65594 0.81994-1.0932 1.0932-0.4373 0.28424-1.0112 0.40975-1.6399 0.40975-0.64502 0-1.1971-0.17492-1.6399-0.40975-0.4373-0.23527-0.68328-0.5521-0.9566-0.9566-0.26761-0.4045-0.56302-0.81446-0.68327-1.3666-0.12594-0.54662-0.13644-1.1698-0.13644-1.7765 0-0.54116 0.11495-1.0112 0.27331-1.5032 0.15306-0.49742 0.38832-0.98392 0.68329-1.3666 0.29517-0.38264 0.6614-0.73248 1.0932-0.9566 0.43729-0.22433 0.83086-0.2733 1.3666-0.2733zm-229.17 0.13643c0.54116 0 1.0495 0.12551 1.5032 0.40975 0.44822 0.29518 0.7598 0.71061 1.0932 1.0932 0.33891 0.38263 0.61768 0.71607 0.81993 1.0932l0.40975 0.81993v7.2428l-0.40975 0.81993-0.81993 1.0932c-0.3389 0.36077-0.76527 0.68874-1.2299 0.95659-0.45916 0.27331-0.86913 0.40975-1.3666 0.40975-0.78713 0-1.5087-0.21341-2.0498-0.68329-0.53569-0.47008-0.891-1.055-1.2299-1.7765-0.33365-0.71607-0.67781-1.5852-0.81993-2.4598-0.14737-0.8746-0.13643-1.6727-0.13643-2.4598 0-0.90193 0.0713-1.8093 0.2733-2.5965 0.20203-0.7926 0.4537-1.4595 0.81994-2.0498 0.37171-0.60128 0.84726-1.0331 1.3666-1.3666 0.51382-0.3446 1.126-0.54663 1.7765-0.54663zm185.58 0c0.73794 0 1.3884 0.29518 1.9132 0.68328 0.52477 0.39357 1.0222 0.86913 1.3666 1.5032 0.34983 0.62314 0.51382 1.2736 0.68327 2.0498 0.16923 0.77075 0.27331 1.5852 0.27331 2.3232 0 0.78714-0.0494 1.5852-0.27331 2.4598-0.21865 0.8746-0.66688 1.7492-1.0932 2.4598-0.42637 0.72701-0.891 1.3064-1.5032 1.7765-0.62315 0.47557-1.2572 0.68329-2.0498 0.68329l-0.81994-0.13645h-0.95658l-0.81994-0.13643-0.54663-0.13643v-10.249l0.40975-0.81994 0.81993-1.0932c0.36078-0.34459 0.79807-0.68327 1.2299-0.95659 0.44276-0.26806 0.91833-0.40974 1.3666-0.40974zm-140.76 4.0997v2.1865h7.1061v-2.1865h-7.1061zm-82.13 0.54662h3.6897c1.4158 0 2.5254 0.33891 3.4164 1.0932 0.88553 0.74887 1.3666 1.8421 1.3666 3.1431 0 0.67233-0.16398 1.2135-0.40974 1.7765-0.24577 0.56302-0.65048 1.1042-1.0932 1.5032-0.4373 0.4045-0.91834 0.73247-1.5032 0.95659-0.58489 0.2239-1.126 0.27332-1.7765 0.27332h-3.6897v-8.746zm23.641 2.0498v4.0997l-0.54662 1.0932c-0.26763 0.37695-0.56303 0.62862-0.9566 0.95659-0.39356 0.32229-0.88552 0.60675-1.3666 0.81993-0.4865 0.21296-0.98392 0.40975-1.5032 0.40975-0.83085 0-1.4759-0.27899-2.0498-0.81994-0.57396-0.53568-0.81994-1.3775-0.81994-2.3231 0-0.47556 0.12026-0.83087 0.40975-1.2299 0.29517-0.4045 0.65594-0.78167 1.0932-1.0932 0.44277-0.31704 0.96206-0.59035 1.5032-0.81993 0.53568-0.21865 1.0331-0.43162 1.5032-0.54662l2.7331-0.54662zm242.84 8.4727c1.3502 0 2.5309 0.25145 3.4164 0.81993 0.891 0.57395 1.3666 1.3064 1.3666 2.1865 0 0.39881-0.17491 0.8418-0.40974 1.2299-0.24052 0.39357-0.53569 0.7926-0.95659 1.0932-0.43161 0.3061-0.94019 0.48649-1.5032 0.68327-0.55755 0.18585-1.2354 0.27332-1.9132 0.27332-0.64502 0-1.2299-0.0931-1.7765-0.27332-0.53569-0.17491-0.98392-0.38263-1.3666-0.68327-0.37738-0.30611-0.60675-0.69968-0.81993-1.0932-0.20772-0.38832-0.40975-0.809-0.40975-1.2299 0-0.43161 0.16399-0.86367 0.40975-1.2299 0.24576-0.3717 0.55209-0.68874 0.95659-0.95659 0.39925-0.26807 0.8418-0.38832 1.3666-0.54663 0.53022-0.1583 1.0823-0.2733 1.6399-0.2733z" fill="#5d6971"/>
<path d="m362.65 441.19c-0.97298 0-1.7437 0.1911-2.3231 0.81994-0.57395 0.61221-0.81993 1.4814-0.81993 2.4598v81.993c0 0.97298 0.24576 1.7 0.81993 2.3231 0.56849 0.61222 1.3502 0.9566 2.3231 0.9566h22.275c6.1112 0 11.572-1.1096 16.535-3.4164 4.9743-2.2958 9.2598-5.5865 12.709-9.7026 3.4547-4.1215 6.155-8.9537 8.0627-14.622 1.9022-5.663 2.7331-11.807 2.7331-18.449 0-6.3682-0.91286-12.184-2.8698-17.355-1.946-5.182-4.6955-9.6698-8.1993-13.392-3.4929-3.7225-7.7402-6.5759-12.709-8.6093-4.9579-2.0389-10.375-3.0064-16.399-3.0064h-22.138zm80.627 0c-0.96752 0-1.7437 0.1911-2.3232 0.81994-0.56849 0.61221-0.95659 1.4814-0.95659 2.4598v81.993c0 0.97298 0.38832 1.7 0.95659 2.3231 0.57941 0.61222 1.3556 0.9566 2.3232 0.9566h9.1559c0.96752 0 1.7164-0.33892 2.3232-0.9566 0.61767-0.61768 0.95659-1.3502 0.95659-2.3231v-36.487h30.611v36.487c0 0.97298 0.38832 1.7055 0.95658 2.3231 0.56849 0.61768 1.2135 0.9566 2.1865 0.9566h9.1559c0.97847 0 1.8421-0.3446 2.4598-0.9566 0.61768-0.62315 0.95658-1.3502 0.95658-2.3231v-81.993c0-0.97845-0.3389-1.8476-0.95658-2.4598-0.61769-0.62862-1.4813-0.81994-2.4598-0.81994h-9.1559c-0.97298 0-1.618 0.1911-2.1865 0.81994-0.56848 0.61221-0.95658 1.4814-0.95658 2.4598v32.524h-30.611v-32.524c0-0.97845-0.33892-1.8476-0.95659-2.4598-0.60676-0.62862-1.3556-0.81994-2.3232-0.81994h-9.1559zm-68.191 12.299h9.9759c3.728 0 7.046 0.7762 9.9759 2.3231 2.9244 1.5579 5.4389 3.6296 7.5161 6.2862 2.0826 2.6566 3.7116 5.8871 4.7829 9.5659 1.0604 3.6788 1.5032 7.6363 1.5032 11.889 0 4.9633-0.48103 9.3964-1.6399 13.529-1.1534 4.1106-2.8862 7.7784-5.0563 10.796-2.1756 3.0119-4.772 5.2858-7.7894 6.9694-3.0228 1.6836-6.3955 2.5965-10.113 2.5965h-9.1559v-63.955z" fill="#e2001a"/>
</g>
</svg>
